<svg width="29" height="23" viewBox="0 0 29 23" fill="none" xmlns="http://www.w3.org/2000/svg">
<path fill-rule="evenodd" clip-rule="evenodd" d="M18.4695 0.705531C18.8796 0.518463 19.3476 0.502124 19.7699 0.659812C20.1922 0.817568 20.5348 1.13672 20.7219 1.54689L24.8716 10.6452C25.0587 11.0554 25.0751 11.5233 24.9173 11.9457C24.7595 12.368 24.4404 12.7106 24.0302 12.8977L7.10769 20.616C6.69756 20.803 6.22956 20.8194 5.80726 20.6617C5.38496 20.504 5.04238 20.1848 4.85526 19.7746L0.705535 10.6763C0.518437 10.2661 0.502048 9.79822 0.659816 9.37586C0.817583 8.95349 1.13668 8.61096 1.5469 8.42386L18.4695 0.705531ZM3.60716 14.6283L5.7651 19.3597C5.84215 19.5285 5.98329 19.6601 6.15714 19.725C6.33099 19.7899 6.52389 19.7832 6.69272 19.7062L23.6153 11.9878C23.7842 11.9108 23.9157 11.7697 23.9806 11.5958C24.0456 11.4219 24.0388 11.2291 23.9618 11.0602L21.8038 6.32889L3.60716 14.6283ZM1.96187 9.33369C1.79296 9.41073 1.66146 9.55183 1.5965 9.72574C1.53153 9.89966 1.53833 10.0924 1.61537 10.2613L2.36224 11.8988L20.5589 3.59939L19.812 1.96186C19.735 1.793 19.5939 1.66144 19.42 1.59649C19.2461 1.53161 19.0533 1.53835 18.8844 1.61536L1.96187 9.33369Z" fill="#503115"/>
<path d="M10.1886 17.5604H13.2886ZM15.3886 17.5604H17.4886ZM19.5886 17.5604H21.6886ZM23.7886 17.5604H25.8886ZM10.1886 19.9604H15.9886ZM8.98857 22.3604H26.7886C27.1068 22.3604 27.4121 22.234 27.6371 22.009C27.8621 21.7839 27.9886 21.4787 27.9886 21.1604V11.1604C27.9886 10.8422 27.8621 10.537 27.6371 10.3119C27.4121 10.0869 27.1068 9.96045 26.7886 9.96045H8.98857C8.67031 9.96045 8.36509 10.0869 8.14005 10.3119C7.915 10.537 7.78857 10.8422 7.78857 11.1604L7.78857 21.1604C7.78857 21.4787 7.915 21.7839 8.14005 22.009C8.36509 22.234 8.67031 22.3604 8.98857 22.3604ZM21.9886 13.7604H24.9886C25.1477 13.7604 25.3003 13.6972 25.4128 13.5847C25.5254 13.4722 25.5886 13.3196 25.5886 13.1604V12.9604C25.5886 12.8013 25.5254 12.6487 25.4128 12.5362C25.3003 12.4237 25.1477 12.3604 24.9886 12.3604H21.9886C21.8294 12.3604 21.6768 12.4237 21.5643 12.5362C21.4518 12.6487 21.3886 12.8013 21.3886 12.9604V13.1604C21.3886 13.3196 21.4518 13.4722 21.5643 13.5847C21.6768 13.6972 21.8294 13.7604 21.9886 13.7604ZM10.7886 15.1604H12.9886C13.1477 15.1604 13.3003 15.0972 13.4128 14.9847C13.5254 14.8722 13.5886 14.7196 13.5886 14.5604V14.3604C13.5886 14.2013 13.5254 14.0487 13.4128 13.9362C13.3003 13.8237 13.1477 13.7604 12.9886 13.7604H10.7886C10.6294 13.7604 10.4768 13.8237 10.3643 13.9362C10.2518 14.0487 10.1886 14.2013 10.1886 14.3604V14.5604C10.1886 14.7196 10.2518 14.8722 10.3643 14.9847C10.4768 15.0972 10.6294 15.1604 10.7886 15.1604Z" fill="white"/>
<path d="M10.1886 17.5604H13.2886M15.3886 17.5604H17.4886M19.5886 17.5604H21.6886M23.7886 17.5604H25.8886M10.1886 19.9604H15.9886M8.98857 22.3604H26.7886C27.1068 22.3604 27.4121 22.234 27.6371 22.009C27.8621 21.7839 27.9886 21.4787 27.9886 21.1604V11.1604C27.9886 10.8422 27.8621 10.537 27.6371 10.3119C27.4121 10.0869 27.1068 9.96045 26.7886 9.96045H8.98857C8.67031 9.96045 8.36509 10.0869 8.14005 10.3119C7.915 10.537 7.78857 10.8422 7.78857 11.1604L7.78857 21.1604C7.78857 21.4787 7.915 21.7839 8.14005 22.009C8.36509 22.234 8.67031 22.3604 8.98857 22.3604ZM21.9886 13.7604H24.9886C25.1477 13.7604 25.3003 13.6972 25.4128 13.5847C25.5254 13.4722 25.5886 13.3196 25.5886 13.1604V12.9604C25.5886 12.8013 25.5254 12.6487 25.4128 12.5362C25.3003 12.4237 25.1477 12.3604 24.9886 12.3604H21.9886C21.8294 12.3604 21.6768 12.4237 21.5643 12.5362C21.4518 12.6487 21.3886 12.8013 21.3886 12.9604V13.1604C21.3886 13.3196 21.4518 13.4722 21.5643 13.5847C21.6768 13.6972 21.8294 13.7604 21.9886 13.7604ZM10.7886 15.1604H12.9886C13.1477 15.1604 13.3003 15.0972 13.4128 14.9847C13.5254 14.8722 13.5886 14.7196 13.5886 14.5604V14.3604C13.5886 14.2013 13.5254 14.0487 13.4128 13.9362C13.3003 13.8237 13.1477 13.7604 12.9886 13.7604H10.7886C10.6294 13.7604 10.4768 13.8237 10.3643 13.9362C10.2518 14.0487 10.1886 14.2013 10.1886 14.3604V14.5604C10.1886 14.7196 10.2518 14.8722 10.3643 14.9847C10.4768 15.0972 10.6294 15.1604 10.7886 15.1604Z" stroke="#503115" stroke-linecap="round" stroke-linejoin="round"/>
</svg>
