<svg width="30" height="24" viewBox="0 0 30 24" fill="none" xmlns="http://www.w3.org/2000/svg">
<path fill-rule="evenodd" clip-rule="evenodd" d="M19.7698 0.659912C19.3477 0.502198 18.8796 0.518555 18.4695 0.705567L1.54688 8.42383C1.13672 8.61084 0.817627 8.95361 0.659912 9.37598C0.501953 9.79834 0.518555 10.2661 0.705566 10.6763L4.85522 19.7747C5.04248 20.1848 5.38501 20.5039 5.80737 20.6616C6.22949 20.8193 6.69751 20.803 7.10767 20.616L24.0303 12.8977C24.4404 12.7107 24.7595 12.3679 24.9172 11.9456C25.0752 11.5232 25.0586 11.0554 24.8716 10.6453L20.7219 1.54688C20.5347 1.13672 20.1921 0.817627 19.7698 0.659912ZM20.5591 3.59937L2.3623 11.8989L3.60718 14.6284L21.804 6.32886L20.5591 3.59937Z" fill="#FCC101"/>
<path fill-rule="evenodd" clip-rule="evenodd" d="M2.3623 11.8989L20.5591 3.59936L21.804 6.32886L3.60718 14.6284L2.3623 11.8989Z" fill="white"/>
<path d="M26.8169 8.99854C27.3957 8.99862 27.9515 9.22891 28.3608 9.63818H28.3618C28.7713 10.048 28.9995 10.6039 28.9995 11.1821L28.9917 21.0288L28.9819 21.2446C28.9325 21.7438 28.7125 22.2142 28.354 22.5728C27.9447 22.9821 27.3888 23.2122 26.8101 23.2124H8.93799C8.35894 23.2124 7.80336 22.9819 7.39404 22.5728C6.98468 22.1634 6.75448 21.6078 6.75439 21.0288V21.0278L6.76221 11.1821L6.77295 10.9663C6.82261 10.4664 7.04362 9.99642 7.40186 9.63818C7.81127 9.22879 8.36671 8.99854 8.9458 8.99854H26.8169ZM13.3286 15.1304C13.2793 15.1635 13.2242 15.1864 13.1665 15.2036C13.2237 15.1866 13.2788 15.1638 13.3286 15.1304ZM10.4585 15.1323C10.5052 15.1634 10.5568 15.1849 10.6099 15.2017C10.5559 15.1846 10.5044 15.1628 10.4585 15.1323ZM10.2388 14.8638C10.2147 14.8047 10.203 14.7422 10.1987 14.6792C10.2005 14.7052 10.2015 14.731 10.2065 14.7563L10.2388 14.8638ZM13.5903 14.6431C13.59 14.6941 13.5814 14.7446 13.5679 14.7944C13.5713 14.7816 13.577 14.7694 13.5796 14.7563L13.5903 14.6431ZM13.5483 14.2407C13.5751 14.3088 13.5901 14.381 13.5903 14.4546C13.5901 14.3806 13.575 14.3084 13.5483 14.2407ZM13.1665 13.8921C13.2242 13.9093 13.2793 13.9323 13.3286 13.9653C13.2788 13.932 13.2236 13.9091 13.1665 13.8921ZM25.2114 13.8403C25.1832 13.8484 25.1551 13.8541 25.1265 13.8579C25.1554 13.8541 25.1835 13.8483 25.2114 13.8403ZM21.9517 13.8472C21.9688 13.8513 21.9859 13.8543 22.0034 13.8569C21.986 13.8543 21.9688 13.8513 21.9517 13.8472ZM21.5444 13.4995C21.5738 13.5713 21.6168 13.6372 21.6724 13.6929C21.615 13.6354 21.5728 13.5692 21.5444 13.4995ZM25.6382 13.3101C25.6342 13.3761 25.6216 13.4402 25.5972 13.4995C25.6219 13.4396 25.6342 13.3754 25.6382 13.3101ZM21.5054 13.3315C21.5075 13.3536 21.5087 13.3755 21.5132 13.397C21.5086 13.3753 21.5075 13.3533 21.5054 13.3315ZM25.6001 12.8774C25.6261 12.944 25.6411 13.0167 25.6411 13.0923C25.6411 13.0185 25.6267 12.9455 25.6001 12.8774ZM21.7622 12.5991L21.6743 12.6714C21.7131 12.6329 21.7574 12.6032 21.8032 12.5776C21.7898 12.5852 21.7751 12.5905 21.7622 12.5991ZM22.0894 12.4995C22.0424 12.4997 21.9965 12.5072 21.9517 12.5181C21.9967 12.5072 22.0424 12.5007 22.0884 12.5005L22.0894 12.4995ZM25.0542 12.5005C25.099 12.5009 25.1438 12.5074 25.188 12.5181C25.1429 12.5072 25.0965 12.4995 25.0493 12.4995L25.0542 12.5005Z" fill="#FCC101" stroke="white"/>
</svg>
