<svg width="22" height="22" viewBox="0 0 22 22" fill="none" xmlns="http://www.w3.org/2000/svg">
<path d="M18.713 7.12908L18.467 7.69508C18.4286 7.78725 18.3637 7.86598 18.2806 7.92135C18.1975 7.97673 18.0999 8.00628 18 8.00628C17.9001 8.00628 17.8025 7.97673 17.7194 7.92135C17.6363 7.86598 17.5714 7.78725 17.533 7.69508L17.287 7.12908C16.8545 6.1278 16.0624 5.325 15.067 4.87908L14.308 4.54008C14.2159 4.49772 14.1379 4.42985 14.0832 4.34451C14.0286 4.25917 13.9995 4.15994 13.9995 4.05858C13.9995 3.95722 14.0286 3.85799 14.0832 3.77265C14.1379 3.68731 14.2159 3.61944 14.308 3.57708L15.025 3.25808C16.0454 2.79946 16.8511 1.96696 17.276 0.932081L17.529 0.321081C17.5662 0.226435 17.631 0.145179 17.715 0.0879061C17.799 0.0306331 17.8983 0 18 0C18.1017 0 18.201 0.0306331 18.285 0.0879061C18.369 0.145179 18.4338 0.226435 18.471 0.321081L18.724 0.931081C19.1485 1.96616 19.9538 2.79901 20.974 3.25808L21.692 3.57808C21.7838 3.62056 21.8615 3.68842 21.916 3.77365C21.9705 3.85889 21.9994 3.95793 21.9994 4.05908C21.9994 4.16023 21.9705 4.25928 21.916 4.34451C21.8615 4.42974 21.7838 4.4976 21.692 4.54008L20.932 4.87808C19.9368 5.32445 19.1451 6.12761 18.713 7.12908ZM8 2.00108H12V4.00108H8C6.4087 4.00108 4.88258 4.63322 3.75736 5.75844C2.63214 6.88366 2 8.40978 2 10.0011C2 13.6111 4.462 15.9671 10 18.4811V16.0011H12C13.5913 16.0011 15.1174 15.3689 16.2426 14.2437C17.3679 13.1185 18 11.5924 18 10.0011H20C20 12.1228 19.1571 14.1576 17.6569 15.6579C16.1566 17.1582 14.1217 18.0011 12 18.0011V21.5011C7 19.5011 0 16.5011 0 10.0011C0 7.87935 0.842855 5.84452 2.34315 4.34423C3.84344 2.84394 5.87827 2.00108 8 2.00108Z" fill="#503115"/>
</svg>
