<svg width="21" height="20" viewBox="0 0 21 20" fill="none" xmlns="http://www.w3.org/2000/svg">
<path d="M0.75 10.0344L9.705 1.07942C9.80938 0.974988 9.93332 0.892141 10.0697 0.835617C10.2061 0.779093 10.3523 0.75 10.5 0.75C10.6477 0.75 10.7939 0.779093 10.9303 0.835617C11.0667 0.892141 11.1906 0.974988 11.295 1.07942L20.25 10.0344M3 7.78442V17.9094C3 18.5304 3.504 19.0344 4.125 19.0344H8.25V14.1594C8.25 13.5384 8.754 13.0344 9.375 13.0344H11.625C12.246 13.0344 12.75 13.5384 12.75 14.1594V19.0344H16.875C17.496 19.0344 18 18.5304 18 17.9094V7.78442M6.75 19.0344H15" stroke="#503115" stroke-width="1.5" stroke-linecap="round" stroke-linejoin="round"/>
</svg>
