<svg width="18" height="20" viewBox="0 0 18 20" fill="none" xmlns="http://www.w3.org/2000/svg">
<path d="M16.8955 12C17.1072 12 17.3325 12.0673 17.5059 12.2383C17.6798 12.41 17.75 12.6353 17.75 12.8506C17.75 13.0587 17.6862 13.266 17.6191 13.4375L17.6182 13.4365L15.4326 19.1514C15.3027 19.4886 15.0184 19.9998 14.4316 20C14.1094 20 13.8606 19.8557 13.6943 19.6318C13.5579 19.4481 13.4858 19.2213 13.4375 19.0586L12.9102 17.2939C12.8782 17.187 12.848 17.0552 12.8516 16.9111C12.7006 16.9154 12.5644 16.8822 12.459 16.8486L10.6592 16.3027C10.5026 16.2554 10.2805 16.1844 10.1006 16.0449C9.88223 15.8755 9.75 15.6274 9.75 15.3164C9.75008 14.7293 10.2643 14.4442 10.5684 14.3281L16.3125 12.127C16.4925 12.0567 16.6946 12.0001 16.8955 12Z" fill="#FCC101"/>
<path fill-rule="evenodd" clip-rule="evenodd" d="M3.75 4.5H12.75V0.75H15C15.3978 0.75 15.7792 0.908149 16.0605 1.18945C16.3419 1.47076 16.5 1.85218 16.5 2.25V9.9375C15.805 9.65612 15.0459 9.5 14.25 9.5C12.4574 9.5 10.8494 10.2869 9.75 11.5332V10.5H3.75V12H9.37793C8.66887 12.9853 8.25 14.1934 8.25 15.5C8.25 17.0371 8.82882 18.4384 9.7793 19.5H1.5C1.10218 19.5 0.720758 19.3419 0.439453 19.0605C0.158149 18.7792 0 18.3978 0 18V2.25C0 1.85218 0.158149 1.47076 0.439453 1.18945C0.720758 0.908149 1.10218 0.75 1.5 0.75H3.75V4.5ZM3.75 15.75H7.5V14.25H3.75V15.75ZM3.75 8.25H12.75V6.75H3.75V8.25Z" fill="#FCC101"/>
<path d="M11.25 3H5.25V0H11.25V3Z" fill="#FCC101"/>
</svg>
