<svg width="18" height="22" viewBox="0 0 18 22" fill="none" xmlns="http://www.w3.org/2000/svg">
<path d="M16.8955 14C17.1072 14 17.3325 14.0673 17.5059 14.2383C17.6798 14.41 17.75 14.6353 17.75 14.8506C17.75 15.0587 17.6862 15.266 17.6191 15.4375L17.6182 15.4365L15.4326 21.1514C15.3027 21.4886 15.0184 21.9998 14.4316 22C14.1094 22 13.8606 21.8557 13.6943 21.6318C13.5579 21.4481 13.4858 21.2213 13.4375 21.0586L12.9102 19.2939C12.8782 19.187 12.848 19.0552 12.8516 18.9111C12.7006 18.9154 12.5644 18.8822 12.459 18.8486L10.6592 18.3027C10.5026 18.2554 10.2805 18.1844 10.1006 18.0449C9.88223 17.8755 9.75 17.6274 9.75 17.3164C9.75008 16.7293 10.2643 16.4442 10.5684 16.3281L16.3125 14.127C16.4925 14.0567 16.6946 14.0001 16.8955 14Z" fill="#503115"/>
<path fill-rule="evenodd" clip-rule="evenodd" d="M11.25 0C11.6478 0 12.0292 0.158149 12.3105 0.439453C12.5919 0.720758 12.75 1.10218 12.75 1.5V2.25H15C15.3978 2.25 15.7792 2.40815 16.0605 2.68945C16.3419 2.97076 16.5 3.35218 16.5 3.75V11.9375C16.0269 11.7459 15.5241 11.6132 15 11.5479V3.75H12.75V6H3.75V3.75H1.5V19.5H8.59277C8.78361 20.0398 9.04953 20.5437 9.37793 21H1.5C1.10218 21 0.720758 20.8419 0.439453 20.5605C0.158149 20.2792 0 19.8978 0 19.5V3.75C0 3.35218 0.158149 2.97076 0.439453 2.68945C0.720758 2.40815 1.10218 2.25 1.5 2.25H3.75V1.5C3.75 1.10218 3.90815 0.720758 4.18945 0.439453C4.47076 0.158149 4.85218 0 5.25 0H11.25ZM5.25 4.5H11.25V1.5H5.25V4.5Z" fill="#503115"/>
<path d="M7.5 17.25H3.75V15.75H7.5V17.25Z" fill="#503115"/>
<path d="M9.75 13.5H3.75V12H9.75V13.5Z" fill="#503115"/>
<path d="M12.75 9.75H3.75V8.25H12.75V9.75Z" fill="#503115"/>
</svg>
